#define lock_width 7
#define lock_height 8
static unsigned char lock_bits[] = {
   0x1c, 0x22, 0x22, 0x7f, 0x77, 0x77, 0x77, 0x7f };
