/* XPM */
static char * mtall_xpm[] = {
"12 12 2 1",
" 	c None",
".	c #7F7D76",
"            ",
"            ",
"  ........  ",
"  ........  ",
"  ........  ",
"  ........  ",
"  ........  ",
"            ",
"  .. .. ..  ",
"  .. .. ..  ",
"            ",
"            "};
