#define ac_width 14
#define ac_height 7
static unsigned char ac_bits[] = {
   0xff, 0x1f, 0x01, 0x10, 0x71, 0x36, 0xf9, 0x23, 0xcd, 0x31, 0x01, 0x10,
   0xff, 0x1f };
