#define battery_full_width 14
#define battery_full_height 7
static unsigned char battery_full_bits[] = {
   0xff, 0x1f, 0x01, 0x10, 0xfd, 0x37, 0xfd, 0x27, 0xfd, 0x37, 0x01, 0x10,
   0xff, 0x1f };
