#define code_width 12
#define code_height 12
static unsigned char code_bits[] = {
   0x00, 0x00, 0x00, 0x00, 0x7e, 0x07, 0x7e, 0x07, 0x7e, 0x07, 0x7e, 0x00,
   0x7e, 0x07, 0x7e, 0x07, 0x7e, 0x07, 0x7e, 0x07, 0x00, 0x00, 0x00, 0x00 };
