#define full_width 12
#define full_height 12
static unsigned char full_bits[] = {
   0x00, 0x00, 0x00, 0x00, 0xfe, 0x07, 0xfe, 0x07, 0x02, 0x04, 0x02, 0x04,
   0x02, 0x04, 0x02, 0x04, 0x02, 0x04, 0xfe, 0x07, 0x00, 0x00, 0x00, 0x00 };
