#define mute_width 12
#define mute_height 10
static unsigned char mute_bits[] = {
   0x20, 0x00, 0x30, 0x00, 0x38, 0x00, 0x3f, 0x09, 0x3f, 0x06, 0x3f, 0x06,
   0x3f, 0x09, 0x38, 0x00, 0x30, 0x00, 0x20, 0x00 };
