#define toggl_width 7
#define toggl_height 8
static unsigned char toggl_bits[] = {
   0x08, 0x2a, 0x49, 0x49, 0x41, 0x41, 0x22, 0x1c };
