#define volume_width 12
#define volume_height 10
static unsigned char volume_bits[] = {
   0x20, 0x00, 0x30, 0x02, 0x38, 0x04, 0x3f, 0x09, 0x3f, 0x0a, 0x3f, 0x0a,
   0x3f, 0x09, 0x38, 0x04, 0x30, 0x02, 0x20, 0x00 };
