#define wifi_width 7
#define wifi_height 8
static unsigned char wifi_bits[] = {
   0x40, 0x40, 0x50, 0x50, 0x54, 0x54, 0x55, 0x55 };
